HIERARCHY
ROOT Hips
{
  OFFSET 52.8768 56.1087 7.03384
  CHANNELS 6 Xposition Yposition Zposition Zrotation Xrotation Yrotation
  JOINT spine
  {
    OFFSET 0 6.3926 0.367606
    CHANNELS 3 Zrotation Xrotation Yrotation
    JOINT spine1
    {
      OFFSET 0 9.17611 0
      CHANNELS 3 Zrotation Xrotation Yrotation
      JOINT spine2
      {
        OFFSET 0 8.79238 0
        CHANNELS 3 Zrotation Xrotation Yrotation
        JOINT Neck
        {
          OFFSET 0 22.5737 1.07624
          CHANNELS 3 Zrotation Xrotation Yrotation
          JOINT Head
          {
            OFFSET 0 6.82011 0
            CHANNELS 3 Zrotation Xrotation Yrotation
            End Site
            {
              OFFSET 0 16.5085 -5.44427
            }
          }
        }
        JOINT RightShoulder
        {
          OFFSET -3.70221 9.49509 -0.515508
          CHANNELS 3 Zrotation Xrotation Yrotation
          JOINT RightArm
          {
            OFFSET 0 12.4537 0
            CHANNELS 3 Zrotation Xrotation Yrotation
            JOINT RightArmRoll
            {
              OFFSET 0 6.28686 0
              CHANNELS 3 Zrotation Xrotation Yrotation
              JOINT RightForeArm
              {
                OFFSET 0 18.3114 0
                CHANNELS 3 Zrotation Xrotation Yrotation
                JOINT RightForeArmRoll
                {
                  OFFSET 0 7.05483 0
                  CHANNELS 3 Zrotation Xrotation Yrotation
                  JOINT RightHand
                  {
                    OFFSET 0 14.1575 0
                    CHANNELS 3 Zrotation Xrotation Yrotation
                    End Site
                    {
                      OFFSET 0 0 0
                    }
                  }
                }
              }
            }
          }
        }
        JOINT LeftShoulder
        {
          OFFSET 3.70221 9.49509 -0.515508
          CHANNELS 3 Zrotation Xrotation Yrotation
          JOINT LeftArm
          {
            OFFSET 0 12.4537 0
            CHANNELS 3 Zrotation Xrotation Yrotation
            JOINT LeftArmRoll
            {
              OFFSET 0 6.28685 0
              CHANNELS 3 Zrotation Xrotation Yrotation
              JOINT LeftForeArm
              {
                OFFSET 0 18.3114 0
                CHANNELS 3 Zrotation Xrotation Yrotation
                JOINT LeftForeArmRoll
                {
                  OFFSET 0 7.05483 0
                  CHANNELS 3 Zrotation Xrotation Yrotation
                  JOINT LeftHand
                  {
                    OFFSET 0 14.1575 0
                    CHANNELS 3 Zrotation Xrotation Yrotation
                    End Site
                    {
                      OFFSET 0 0 0
                    }
                  }
                }
              }
            }
          }
        }
      }
    }
  }
  JOINT RightUpLeg
  {
    OFFSET -5.66616 -1.03903 -0.87161
    CHANNELS 3 Zrotation Xrotation Yrotation
    JOINT RightUpLegRoll
    {
      OFFSET 0 16.6005 0
      CHANNELS 3 Zrotation Xrotation Yrotation
      JOINT RightLeg
      {
        OFFSET 0 -20.5572 0
        CHANNELS 3 Zrotation Xrotation Yrotation
        JOINT RightLegRoll
        {
          OFFSET 0 20.6244 0
          CHANNELS 3 Zrotation Xrotation Yrotation
          JOINT RightFoot
          {
            OFFSET 0 17.1664 0
            CHANNELS 3 Zrotation Xrotation Yrotation
            JOINT RightToeBase
            {
              OFFSET 0 14.3502 0
              CHANNELS 3 Zrotation Xrotation Yrotation
              End Site
              {
                OFFSET 0.00608252 6.9497 -0.801061
              }
            }
          }
        }
      }
    }
  }
  JOINT LeftUpLeg
  {
    OFFSET 5.66616 -1.03903 -0.87161
    CHANNELS 3 Zrotation Xrotation Yrotation
    JOINT LeftUpLegRoll
    {
      OFFSET 0 16.6006 0
      CHANNELS 3 Zrotation Xrotation Yrotation
      JOINT LeftLeg
      {
        OFFSET 0 20.5571 0
        CHANNELS 3 Zrotation Xrotation Yrotation
        JOINT LeftLegRoll
        {
          OFFSET 0 20.8151 0
          CHANNELS 3 Zrotation Xrotation Yrotation
          JOINT LeftFoot
          {
            OFFSET 0 16.9757 0
            CHANNELS 3 Zrotation Xrotation Yrotation
            JOINT LeftToeBase
            {
              OFFSET 0 14.3502 0
              CHANNELS 3 Zrotation Xrotation Yrotation
              End Site
              {
                OFFSET -0.0272592 6.94971 -0.80106
              }
            }
          }
        }
      }
    }
  }
}
MOTION
Frames: 10
Frame Time: 0.00208333
54.2523 85.7931 47.1093 -1.09688 -3.37479 0.83538 -0.283004 -1.54171 -0.328431 -0.570044 0.922605 -0.616055 -0.562951 2.5676 -0.606893 4.19663 7.06383 0.276459 -2.24562 2.81563 1.27839 61.4791 -3.56353 -2.39824 110.389 17.3379 0.919943 8.72812e-007 1.62902e-006 -5.95815e-006 15.2464 4.89013 -0.889851 1.99411e-006 -3.26096e-006 -2.99999 8.02894 -4.95144 0.697699 -52.6423 -4.337 2.20056 -114.98 15.5392 4.53802 -6.52535e-006 -3.67341e-007 1.36208e-006 -12.6787 5.53912 1.05359 -8.59545e-007 -6.32409e-006 3 -8.02887 -4.95143 -0.697683 177.719 -3.52116 0.404798 180 7.0154e-015 178.892 176.408 5.92508 179.779 2.30208e-006 4.58029e-006 0.0475399 -18.1075 67.3602 19.0363 8.15553 25.721 -2.82043 -176.072 -3.51766 0.624257 4.54188e-006 -4.6773e-006 -1.15757 -1.2323 -8.15102 0.404896 -3.49284e-006 5.06013e-006 -0.184496 20.7165 70.3829 -21.7423 -8.16531 25.6813 2.8801 
54.251 85.7843 47.1202 -1.09641 -3.37387 0.834783 -0.283622 -1.54215 -0.328667 -0.571386 0.921595 -0.617246 -0.564284 2.56659 -0.608055 4.19668 7.06627 0.276231 -2.24504 2.80706 1.27844 61.4799 -3.55862 -2.39539 110.383 17.3333 0.934485 8.72812e-007 1.62902e-006 -5.95815e-006 15.2411 4.88004 -0.88845 1.99411e-006 -3.26096e-006 -2.99999 8.02894 -4.95144 0.697699 -52.6417 -4.33695 2.20047 -114.978 15.5357 4.52223 -6.52535e-006 -3.67341e-007 1.36208e-006 -12.6685 5.52931 1.05239 -8.59545e-007 -6.32409e-006 3 -8.02887 -4.95143 -0.697683 177.737 -3.52085 0.376434 180 7.0154e-015 178.892 176.446 5.92865 179.775 2.30208e-006 4.58029e-006 0.0475132 -18.1066 67.359 19.0348 8.15735 25.7453 -2.79695 -176.073 -3.5159 0.626324 4.54188e-006 -4.6773e-006 -1.15759 -1.23048 -8.15406 0.405078 -3.49284e-006 5.06013e-006 -0.184493 20.7229 70.3889 -21.749 -8.16518 25.6795 2.88212 
54.2519 85.7934 47.1186 -1.09604 -3.3728 0.834241 -0.284239 -1.54264 -0.328942 -0.572729 0.920495 -0.618544 -0.565616 2.56549 -0.609324 4.19661 7.0691 0.276065 -2.24425 2.79791 1.27855 61.4809 -3.55332 -2.39232 110.376 17.3286 0.949191 8.72812e-007 1.62902e-006 -5.95815e-006 15.2357 4.86983 -0.887021 1.99411e-006 -3.26096e-006 -2.99999 8.02894 -4.95144 0.697699 -52.6411 -4.33707 2.20049 -114.975 15.5322 4.50642 -6.52535e-006 -3.67341e-007 1.36208e-006 -12.6583 5.51967 1.0512 -8.59545e-007 -6.32409e-006 3 -8.02887 -4.95143 -0.697683 177.757 -3.52042 0.347002 180 7.0154e-015 178.892 176.485 5.93228 179.772 2.30208e-006 4.58029e-006 0.047473 -18.1057 67.3578 19.0332 8.1592 25.7703 -2.77265 -176.074 -3.51391 0.628369 4.54188e-006 -4.6773e-006 -1.15761 -1.22864 -8.15719 0.405259 -3.49284e-006 5.06013e-006 -0.18449 20.7295 70.395 -21.7561 -8.16505 25.6776 2.88424 
54.2363 85.7986 47.1168 -1.09574 -3.37161 0.833739 -0.284854 -1.54316 -0.329245 -0.574073 0.919332 -0.619917 -0.566948 2.56433 -0.610667 4.19645 7.07222 0.275943 -2.24332 2.78834 1.27871 61.482 -3.54774 -2.38909 110.369 17.3238 0.964012 8.72812e-007 1.62902e-006 -5.95815e-006 15.2303 4.85952 -0.885572 1.99411e-006 -3.26096e-006 -2.99999 8.02894 -4.95144 0.697699 -52.6404 -4.33732 2.2006 -114.973 15.5284 4.49059 -6.52535e-006 -3.67341e-007 1.36208e-006 -12.648 5.51015 1.05003 -8.59545e-007 -6.32409e-006 3 -8.02887 -4.95143 -0.697683 177.777 -3.51992 0.316818 180 7.0154e-015 178.892 176.525 5.93597 179.768 2.30208e-006 4.58029e-006 0.0474234 -18.1048 67.3565 19.0316 8.16107 25.7959 -2.74777 -176.075 -3.51176 0.630399 4.54188e-006 -4.6773e-006 -1.15765 -1.22677 -8.16037 0.405437 -3.49284e-006 5.06013e-006 -0.184486 20.7363 70.4014 -21.7632 -8.16492 25.6756 2.88643 
54.2401 85.7919 47.1206 -1.09549 -3.37035 0.833259 -0.285468 -1.5437 -0.329565 -0.575417 0.918132 -0.621334 -0.56828 2.56312 -0.612054 4.19625 7.07549 0.275846 -2.2423 2.77853 1.27888 61.4831 -3.542 -2.38577 110.362 17.319 0.978899 8.72812e-007 1.62902e-006 -5.95815e-006 15.2249 4.84915 -0.884111 1.99411e-006 -3.26096e-006 -2.99999 8.02894 -4.95144 0.697699 -52.6397 -4.33764 2.20075 -114.971 15.5247 4.47474 -6.52535e-006 -3.67341e-007 1.36208e-006 -12.6377 5.5007 1.04886 -8.59545e-007 -6.32409e-006 3 -8.02887 -4.95143 -0.697683 177.798 -3.51937 0.286199 180 7.0154e-015 178.892 176.565 5.93969 179.764 2.30208e-006 4.58029e-006 0.0473683 -18.1039 67.3552 19.03 8.16294 25.8218 -2.72256 -176.075 -3.50952 0.63242 4.54188e-006 -4.6773e-006 -1.15769 -1.22489 -8.16359 0.405614 -3.49284e-006 5.06013e-006 -0.184481 20.7431 70.4078 -21.7705 -8.16478 25.6736 2.88866 
54.2455 85.8011 47.1172 -1.09525 -3.36908 0.832785 -0.286083 -1.54424 -0.329888 -0.576762 0.916922 -0.622762 -0.569611 2.56191 -0.613453 4.19603 7.0788 0.275755 -2.24126 2.76865 1.27906 61.4843 -3.53621 -2.38243 110.356 17.3142 0.993804 8.72812e-007 1.62902e-006 -5.95815e-006 15.2195 4.83877 -0.882648 1.99411e-006 -3.26096e-006 -2.99999 8.02894 -4.95144 0.697699 -52.6389 -4.33798 2.20092 -114.969 15.5209 4.4589 -6.52535e-006 -3.67341e-007 1.36208e-006 -12.6275 5.49126 1.0477 -8.59545e-007 -6.32409e-006 3 -8.02887 -4.95143 -0.697683 177.818 -3.51881 0.255461 180 7.0154e-015 178.892 176.606 5.94341 179.76 2.30208e-006 4.58029e-006 0.0473117 -18.103 67.3538 19.0283 8.16478 25.8477 -2.69724 -176.076 -3.50726 0.634438 4.54188e-006 -4.6773e-006 -1.15773 -1.22301 -8.16682 0.405792 -3.49284e-006 5.06013e-006 -0.184476 20.7501 70.4142 -21.7779 -8.16465 25.6716 2.8909 
54.242 85.7903 47.1204 -1.09499 -3.36783 0.832301 -0.286697 -1.54478 -0.330205 -0.578106 0.915729 -0.624171 -0.570943 2.56072 -0.614832 4.19583 7.08205 0.275653 -2.24026 2.75889 1.27923 61.4854 -3.5305 -2.37913 110.349 17.3094 1.00868 8.72812e-007 1.62902e-006 -5.95815e-006 15.2141 4.82842 -0.881189 1.99411e-006 -3.26096e-006 -2.99999 8.02894 -4.95144 0.697699 -52.6382 -4.33829 2.20107 -114.967 15.5171 4.44306 -6.52535e-006 -3.67341e-007 1.36208e-006 -12.6172 5.4818 1.04653 -8.59545e-007 -6.32409e-006 3 -8.02887 -4.95143 -0.697683 177.838 -3.51827 0.224923 180 7.0154e-015 178.892 176.646 5.94715 179.757 2.30208e-006 4.58029e-006 0.0472576 -18.1021 67.3525 19.0267 8.16659 25.8735 -2.67206 -176.077 -3.50503 0.63646 4.54188e-006 -4.6773e-006 -1.15777 -1.22113 -8.17003 0.405969 -3.49284e-006 5.06013e-006 -0.184471 20.7569 70.4206 -21.7851 -8.16451 25.6696 2.89312 
54.2451 85.7853 47.1237 -1.09468 -3.36667 0.83179 -0.287313 -1.54529 -0.330502 -0.57945 0.914579 -0.625528 -0.572276 2.55957 -0.616159 4.1957 7.0851 0.275522 -2.23936 2.7494 1.27937 61.4864 -3.52498 -2.37593 110.342 17.3046 1.02347 8.72812e-007 1.62902e-006 -5.95815e-006 15.2087 4.81812 -0.879745 1.99411e-006 -3.26096e-006 -2.99999 8.02894 -4.95144 0.697699 -52.6375 -4.33851 2.20116 -114.965 15.5134 4.42723 -6.52535e-006 -3.67341e-007 1.36208e-006 -12.607 5.47225 1.04536 -8.59545e-007 -6.32409e-006 3 -8.02887 -4.95143 -0.697683 177.858 -3.51778 0.194899 180 7.0154e-015 178.892 176.686 5.95083 179.753 2.30208e-006 4.58029e-006 0.04721 -18.1012 67.3512 19.0251 8.16835 25.8989 -2.64727 -176.077 -3.50292 0.638493 4.54188e-006 -4.6773e-006 -1.15781 -1.21927 -8.1732 0.406148 -3.49284e-006 5.06013e-006 -0.184467 20.7637 70.4269 -21.7923 -8.16437 25.6677 2.8953 
54.2407 85.7784 47.1252 -1.09429 -3.36563 0.831236 -0.28793 -1.54577 -0.330768 -0.580793 0.913499 -0.626802 -0.573608 2.55849 -0.617404 4.19565 7.08784 0.275342 -2.23862 2.74038 1.27947 61.4874 -3.51977 -2.37291 110.336 17.2999 1.03814 8.72812e-007 1.62902e-006 -5.95815e-006 15.2033 4.80794 -0.878322 1.99411e-006 -3.26096e-006 -2.99999 8.02894 -4.95144 0.697699 -52.6369 -4.3386 2.20115 -114.963 15.5099 4.41143 -6.52535e-006 -3.67341e-007 1.36208e-006 -12.5967 5.46257 1.04417 -8.59545e-007 -6.32409e-006 3 -8.02887 -4.95143 -0.697683 177.878 -3.51738 0.165708 180 7.0154e-015 178.892 176.725 5.95444 179.749 2.30208e-006 4.58029e-006 0.0471729 -18.1003 67.35 19.0235 8.17005 25.9238 -2.62309 -176.078 -3.50098 0.640543 4.54188e-006 -4.6773e-006 -1.15783 -1.21743 -8.17631 0.406329 -3.49284e-006 5.06013e-006 -0.184464 20.7703 70.433 -21.7993 -8.16425 25.6658 2.89739 
54.233 85.7747 47.1181 -1.09378 -3.36477 0.830621 -0.288549 -1.54621 -0.330992 -0.582135 0.912517 -0.627961 -0.574941 2.5575 -0.618534 4.19573 7.09016 0.275095 -2.2381 2.73199 1.27951 61.4882 -3.51497 -2.37012 110.329 17.2953 1.05262 8.72812e-007 1.62902e-006 -5.95815e-006 15.198 4.79789 -0.87693 1.99411e-006 -3.26096e-006 -2.99999 8.02894 -4.95144 0.697699 -52.6364 -4.33849 2.20102 -114.961 15.5065 4.39566 -6.52535e-006 -3.67341e-007 1.36208e-006 -12.5866 5.45272 1.04296 -8.59545e-007 -6.32409e-006 3 -8.02887 -4.95143 -0.697683 177.896 -3.51709 0.137665 180 7.0154e-015 178.892 176.762 5.95798 179.746 2.30208e-006 4.58029e-006 0.0471502 -18.0994 67.3488 19.0221 8.17168 25.9478 -2.59977 -176.079 -3.49928 0.642617 4.54188e-006 -4.6773e-006 -1.15785 -1.21563 -8.17933 0.406512 -3.49284e-006 5.06013e-006 -0.184462 20.7766 70.439 -21.806 -8.16412 25.664 2.89939 
